<?xml version="1.0" encoding="UTF-8"?>
<svg id="_レイヤー_1" data-name="レイヤー_1" xmlns="http://www.w3.org/2000/svg" viewBox="0 0 256 256">
  <defs>
    <style>
      .cls-1, .cls-2 {
        fill: #fff;
      }

      .cls-3 {
        fill: none;
        stroke-linecap: round;
      }

      .cls-3, .cls-2 {
        stroke: #d4d4d8;
        stroke-miterlimit: 10;
        stroke-width: 2.54px;
      }
    </style>
  </defs>
  <rect class="cls-1" width="256" height="256"/>
  <line class="cls-3" x1="240.61" y2="240.6"/>
  <line class="cls-3" x1="256" y1="10" x2="10" y2="256"/>
  <line class="cls-3" x1="256" y1="35.4" x2="35.39" y2="256"/>
  <line class="cls-3" x1="256" y1="60.79" x2="60.79" y2="256"/>
  <line class="cls-3" x1="256" y1="86.19" x2="86.18" y2="256"/>
  <line class="cls-3" x1="256" y1="111.58" x2="111.58" y2="256"/>
  <line class="cls-3" x1="256" y1="136.98" x2="136.98" y2="256"/>
  <line class="cls-3" x1="256" y1="162.37" x2="162.37" y2="256"/>
  <line class="cls-3" x1="256" y1="187.77" x2="187.77" y2="256"/>
  <line class="cls-3" x1="256" y1="213.16" x2="213.16" y2="256"/>
  <line class="cls-3" x1="256" y1="238.56" x2="238.56" y2="256"/>
  <line class="cls-3" x1="215.21" y2="215.21"/>
  <line class="cls-3" x1="189.82" y2="189.81"/>
  <line class="cls-3" x1="164.42" y2="164.42"/>
  <line class="cls-3" x1="139.03" y2="139.02"/>
  <line class="cls-3" x1="113.63" y2="113.63"/>
  <line class="cls-3" x1="88.23" y2="88.23"/>
  <line class="cls-3" x1="62.84" y2="62.84"/>
  <line class="cls-3" x1="37.44" y2="37.44"/>
  <line class="cls-3" x1="12.05" y2="12.05"/>
  <circle class="cls-2" cx="128" cy="128" r="106.88"/>
  <g>
    <path d="M133.22,133.27c-1.87.11-3.62.32-5.37.3-6.62-.1-12.86-1.78-18.75-4.75-10.52-5.3-16.91-13.89-19.65-25.23-.61-2.54-.74-5.2-1.06-7.81-.24-2.01-.65-3.96-1.6-5.77-.45-.87-1.11-1.38-2.07-1.62-2.46-.61-4.9-1.27-7.35-1.94-.62-.17-1.24-.4-1.79-.73-.66-.39-.66-.9.03-1.23.75-.35,1.58-.66,2.4-.73,2.43-.2,4.87-.36,7.3-.34,1.01,0,1.53-.33,2.06-1.08,2.26-3.26,5.07-5.94,8.63-7.76,4.33-2.21,8.95-3.35,13.82-3.12,4.4.21,8.54,1.52,12.48,3.45,6.23,3.05,11.66,7.24,16.72,11.9,3.52,3.24,6.92,6.62,10.25,10.05,1.62,1.67,2.92,3.64,4.45,5.39,1.33,1.51,2.79,2.91,4.18,4.36,2.32,2.42,4.63,4.84,6.95,7.26.31.33.7.6.96.96.35.47.61,1,1.02,1.69-.99.1-1.69.2-2.4.23-8.29.27-16.27-1.31-24.12-3.83-5.24-1.68-10.47-3.37-15.17-6.33-3.45-2.17-6.47-4.84-8.77-8.23-1.66-2.45-1.92-5.27-1.88-8.14,0-.63-.09-1.26-.14-1.91-1.49.36-2.65,1.95-2.91,3.68-.66,4.33.86,7.92,3.65,11.1,2.01,2.29,4.46,4.06,6.95,5.8,5.28,3.71,11.09,6.34,17.24,8.07,4.43,1.24,9.03,1.87,13.56,2.74,3.56.68,7.15,1.02,10.78.76,1.71-.13,3.42-.41,5.11-.68.72-.12,1.24.04,1.86.48,1.84,1.33,3.72,2.62,5.68,3.77,5.54,3.28,11.12,6.49,16.68,9.74.81.47,1.58,1.03,2.34,1.58.59.43.86,1.12.55,1.72-.26.5-.86,1.05-1.39,1.15-2,.4-4.04.32-5.95-.46-5.27-2.15-10.49-4.42-15.77-6.53-3.83-1.53-7.62-3.26-11.73-3.94-2.11-.35-4.27-.43-6.41-.52-.68-.03-1.4.23-2.07.46-4.23,1.47-8.44,3-12.67,4.45-1,.34-1.81.84-2.42,1.69-2.54,3.54-5.07,7.09-7.6,10.64-.83,1.16-1.66,2.32-2.45,3.52-.26.39-.37.88-.58,1.43.77.18,1.43.33,2.08.48,1.94.44,3.55,1.33,4.13,3.39.11.38-.02,1.15-.24,1.24-.47.2-1.34.31-1.59.03-2.03-2.22-4.58-1.96-7.17-1.71-1.8.17-3.1,1.22-4.14,2.52-1.13,1.41-2.01,3.02-3.04,4.51-.3.43-.76,1.08-1.14,1.08-.89,0-1.81-.29-2.12-1.37-.62-2.11-.19-4.07.86-5.91,1.42-2.5,3.71-3.9,6.41-4.53,1.59-.37,2.68-1.08,3.59-2.45,2.65-3.98,5.44-7.87,8.16-11.81.23-.34.4-.72.63-1.14ZM160,110.81c.02-.15.04-.31.05-.46-9.04-1.44-17.21-5.55-25.85-8.43.02,1.62,1,2.34,2.08,2.9,1.76.91,3.55,1.75,5.35,2.59,5.42,2.52,11.06,3.98,17.09,3.62.43-.03.85-.14,1.28-.21ZM153.67,103.49c-.14-1.22-.65-1.8-1.63-2.03-1.07-.25-2.18-.47-3.18-.91-4.02-1.76-8.01-3.59-12.01-5.4-.4-.18-.8-.36-1.19-.53-.72,1.51-.67,1.85.43,2.54,4.62,2.91,9.45,5.32,14.95,6.06.84.11,1.69.17,2.64.26ZM99.71,84.38c0,1.54,1.21,2.69,2.84,2.68,1.62-.01,2.65-1.06,2.66-2.71,0-1.55-1.21-2.82-2.73-2.85-1.58-.03-2.76,1.21-2.77,2.89Z"/>
    <path d="M147.93,173.85c.39,1.19.69,2.42,1.2,3.56,2.28,5.14,4.62,10.25,6.96,15.36.49,1.06,1.15,2.04,1.61,3.12.27.63.41,1.39.37,2.07-.08,1.32-.89,2.25-1.96,2.5-1.37.32-2.58-.1-3.31-1.25-.35-.54-.62-1.15-.83-1.76-3.12-9.19-7.48-17.79-12.25-26.21-.93-1.65-2.15-2.6-3.77-3.27-3.49-1.43-6.98-2.86-10.45-4.32-1.76-.74-3.51-1.53-5.23-2.37-.23-.11-.43-.76-.32-1.01.99-2.14,2.1-4.2,4.09-5.61.96-.68,2.04-.64,3.1-.47,3.74.58,7.32,1.65,10.82,3.14,5.2,2.2,10.51,4.15,15.81,6.13,5.38,2.01,10.79,3.95,16.2,5.89,1.34.48,1.93,1.33,1.96,2.77.06,2.57-.38,4.98-1.83,7.13-.35.53-.88.95-1.37,1.36-.76.64-1.55.63-2.44.16-5.35-2.88-11.02-4.97-16.8-6.79-.43-.13-.86-.23-1.3-.34-.09.07-.18.14-.26.22Z"/>
    <path d="M79.43,143.4c-.73-.51-1.41-1.13-2.2-1.52-4.89-2.42-9.78-4.86-14.74-7.13-2.21-1.01-2.65-2.61-2.43-4.66.19-1.68,1.65-3.02,3.61-3.12.88-.04,1.85.31,2.68.69,3.75,1.72,7.44,3.58,11.21,5.27,4.8,2.16,9.66,4.21,14.49,6.3.24.1.48.2.71.32.55.28.71.59.2,1.12-1.61,1.65-2.5,3.62-2.42,5.96,0,.13,0,.26,0,.39-.06,1.47-.22,1.57-1.62,1.08-.25-.09-.51-.13-.73-.26-2.43-1.38-4.88-.73-7.41-.25-3.37.63-6.81.97-10.21,1.42-1.63.22-3.27.48-4.91.57-1.62.09-2.69-.88-2.84-2.33-.14-1.36.82-2.61,2.29-2.94,2.44-.54,4.9-.43,7.37-.3,2.28.12,4.58-.03,6.86-.06.04-.18.07-.37.11-.55Z"/>
    <path d="M118.19,134.8c-.88.6-1.59,1.14-2.35,1.59-2.1,1.24-4.22,2.44-6.33,3.67-.31.18-.6.4-.85.65-.43.45-.5.9.15,1.26.57.32,1.11.68,1.68.99,1.14.61,1.84,1.51,1.97,2.82.1.96.48,1.73,1.47,2.07.19.07.33.27.56.46-2.8,2.33-3.75,5.48-4.3,9-.49-.14-.95-.22-1.38-.4-3.21-1.33-6.4-2.7-9.62-4.01-.62-.25-.63-.68-.39-1.08,1.35-2.21,2.58-4.53,4.9-5.96.66-.41,1.3-.47,2.03-.29,1.54.37,3.09.7,4.68.93-.77-1.55-2.15-2.12-3.65-2.58-3.94-1.21-6.55.83-8.8,3.62-.74.92-1.26,2.04-1.79,3.11-.51,1.02-1.33.73-2.11.63-.81-.11-.98-.73-.86-1.38.35-1.95.63-3.92,1.2-5.8.43-1.4,1.81-2.08,3.05-2.73,1.86-.96,3.86-1.43,5.93-1.7.71-.09,1.41-.46,2.05-.8,3.07-1.61,6.11-3.29,9.19-4.88,1.19-.61,2.26-.09,3.54.82Z"/>
    <path class="cls-1" d="M160,110.81c-.43.07-.85.19-1.28.21-6.03.35-11.67-1.1-17.09-3.62-1.8-.84-3.59-1.68-5.35-2.59-1.08-.56-2.06-1.28-2.08-2.9,8.64,2.88,16.81,6.99,25.85,8.43-.02.15-.04.31-.05.46Z"/>
    <path class="cls-1" d="M153.67,103.49c-.94-.09-1.79-.15-2.64-.26-5.5-.74-10.33-3.14-14.95-6.06-1.1-.69-1.15-1.03-.43-2.54.39.17.8.35,1.19.53,4,1.81,7.99,3.64,12.01,5.4,1,.44,2.11.65,3.18.91.98.23,1.49.81,1.63,2.03Z"/>
    <path class="cls-1" d="M99.71,84.38c0-1.68,1.19-2.92,2.77-2.89,1.52.03,2.74,1.3,2.73,2.85,0,1.65-1.04,2.7-2.66,2.71-1.63.01-2.84-1.13-2.84-2.68Z"/>
  </g>
</svg>